<svg width="89" height="101" viewBox="0 0 89 101" fill="none" xmlns="http://www.w3.org/2000/svg">
<path d="M44.6515 0C46.042 1.07448 47.6142 1.8619 49.1259 2.73097C53.774 5.404 58.4196 8.07703 63.0493 10.7817C68.6403 14.0499 74.2787 17.2364 79.896 20.4625C81.8659 21.5949 83.8305 22.7379 85.9083 23.9388C83.9305 25.0817 82.0318 26.1799 80.1356 27.2754C75.6244 29.88 71.1132 32.4846 66.6019 35.0891C59.6257 39.1158 52.6442 43.1319 45.6786 47.177C44.8437 47.6616 44.1854 47.7406 43.2821 47.2165C35.9266 42.937 28.529 38.7313 21.1604 34.4781C15.2087 31.044 9.27796 27.5809 3.33672 24.1284C3.25245 24.0783 3.17871 24.0125 3.0365 23.9072C5.96761 22.2217 8.86976 20.5599 11.7614 18.8824C18.6217 14.9005 25.461 10.8844 32.3398 6.93408C36.3243 4.64554 40.3694 2.45708 44.2565 0H44.6515Z" fill="url(#paint0_diamond_302_74)"/>
<path d="M0.145199 29.1954C3.30543 31.002 6.4683 32.8007 9.62326 34.6152C14.1951 37.2461 18.759 39.8902 23.3281 42.5264C28.9876 45.7919 34.6365 49.0733 40.3144 52.3046C41.1597 52.7866 41.5258 53.2817 41.5232 54.3166C41.4784 67.745 41.4942 81.176 41.4942 94.6043C41.4942 96.6401 41.4942 98.6731 41.4942 100.898C27.6419 92.9005 13.8922 84.963 0.142565 77.0229C-0.0812843 76.728 0.0266903 76.3882 0.0266903 76.0722C0.0214232 60.7635 0.0214232 45.4522 0.0266903 30.1435C0.0266903 29.8275 -0.0839178 29.4851 0.145199 29.1954Z" fill="url(#paint1_diamond_302_74)"/>
<path d="M88.7659 77.0254C75.0295 84.9523 61.2956 92.8792 47.546 100.811C47.3169 100.495 47.4196 100.195 47.4196 99.9212C47.4143 84.5862 47.4196 69.2512 47.3985 53.9162C47.3985 53.242 47.596 52.8891 48.1938 52.5467C55.5414 48.3384 62.8705 44.101 70.1969 39.8584C76.0934 36.4453 81.982 33.0139 87.8784 29.5955C88.155 29.4349 88.4657 29.3296 88.7607 29.1979C88.9951 29.4876 88.8818 29.8299 88.8818 30.1459C88.8871 45.4546 88.8871 60.7633 88.8818 76.0747C88.8818 76.3907 88.9872 76.733 88.7686 77.0254H88.7659Z" fill="url(#paint2_diamond_302_74)"/>
<defs>
<radialGradient id="paint0_diamond_302_74" cx="0" cy="0" r="1" gradientUnits="userSpaceOnUse" gradientTransform="translate(6.01028 27.8987) rotate(-10.8347) scale(85.7048 102.74)">
<stop stop-color="#84FFF7"/>
<stop offset="0.494792" stop-color="#5EE2FF"/>
<stop offset="1" stop-color="#3A67DB"/>
</radialGradient>
<radialGradient id="paint1_diamond_302_74" cx="0" cy="0" r="1" gradientUnits="userSpaceOnUse" gradientTransform="translate(1.49002 71.242) rotate(-29.928) scale(48.6667 136.629)">
<stop stop-color="#84FFF7"/>
<stop offset="0.494792" stop-color="#5EE2FF"/>
<stop offset="1" stop-color="#3A67DB"/>
</radialGradient>
<radialGradient id="paint2_diamond_302_74" cx="0" cy="0" r="1" gradientUnits="userSpaceOnUse" gradientTransform="translate(48.8862 71.1919) rotate(-29.9034) scale(48.6422 136.492)">
<stop stop-color="#84FFF7"/>
<stop offset="0.494792" stop-color="#5EE2FF"/>
<stop offset="1" stop-color="#3A67DB"/>
</radialGradient>
</defs>
</svg>
