<svg width="458" height="101" viewBox="0 0 458 101" fill="none" xmlns="http://www.w3.org/2000/svg">
<path d="M44.6515 0C46.042 1.07448 47.6142 1.8619 49.1259 2.73097C53.774 5.404 58.4196 8.07703 63.0493 10.7817C68.6403 14.0499 74.2787 17.2364 79.896 20.4625C81.8659 21.5949 83.8305 22.7379 85.9083 23.9388C83.9305 25.0817 82.0318 26.1799 80.1356 27.2754C75.6244 29.88 71.1132 32.4846 66.6019 35.0891C59.6257 39.1158 52.6442 43.1319 45.6786 47.177C44.8437 47.6616 44.1854 47.7406 43.2821 47.2165C35.9266 42.937 28.529 38.7313 21.1604 34.4781C15.2087 31.044 9.27796 27.5809 3.33672 24.1284C3.25245 24.0783 3.17871 24.0125 3.0365 23.9072C5.96761 22.2217 8.86976 20.5599 11.7614 18.8824C18.6217 14.9005 25.461 10.8844 32.3398 6.93408C36.3243 4.64554 40.3694 2.45708 44.2565 0H44.6515Z" fill="url(#paint0_diamond_302_74)"/>
<path d="M0.145199 29.1954C3.30543 31.002 6.4683 32.8007 9.62326 34.6152C14.1951 37.2461 18.759 39.8902 23.3281 42.5264C28.9876 45.7919 34.6365 49.0733 40.3144 52.3046C41.1597 52.7866 41.5258 53.2817 41.5232 54.3166C41.4784 67.745 41.4942 81.176 41.4942 94.6043C41.4942 96.6401 41.4942 98.6731 41.4942 100.898C27.6419 92.9005 13.8922 84.963 0.142565 77.0229C-0.0812843 76.728 0.0266903 76.3882 0.0266903 76.0722C0.0214232 60.7635 0.0214232 45.4522 0.0266903 30.1435C0.0266903 29.8275 -0.0839178 29.4851 0.145199 29.1954Z" fill="url(#paint1_diamond_302_74)"/>
<path d="M88.7659 77.0254C75.0295 84.9523 61.2956 92.8792 47.546 100.811C47.3169 100.495 47.4196 100.195 47.4196 99.9212C47.4143 84.5862 47.4196 69.2512 47.3985 53.9162C47.3985 53.242 47.596 52.8891 48.1938 52.5467C55.5414 48.3384 62.8705 44.101 70.1969 39.8584C76.0934 36.4453 81.982 33.0139 87.8784 29.5955C88.155 29.4349 88.4657 29.3296 88.7607 29.1979C88.9951 29.4876 88.8818 29.8299 88.8818 30.1459C88.8871 45.4546 88.8871 60.7633 88.8818 76.0747C88.8818 76.3907 88.9872 76.733 88.7686 77.0254H88.7659Z" fill="url(#paint2_diamond_302_74)"/>
<path d="M103 30H121.091C131.086 30 135.517 35.239 135.517 41.5459C135.633 43.6823 135.073 45.8009 133.915 47.5989C132.757 49.3969 131.061 50.7823 129.07 51.5568C131.388 52.2785 133.412 53.7302 134.841 55.6962C136.269 57.6621 137.026 60.0372 136.999 62.4686C136.999 70.9945 130.469 76 121.574 76H103V30ZM119.925 48.9373C126.221 48.9373 128.687 46.4179 128.687 42.1632C128.687 38.2256 125.838 35.4893 120.758 35.4893H109.697V48.8372L119.925 48.9373ZM109.697 70.4606H120.591C126.271 70.4606 129.986 67.8245 129.986 62.4019C129.986 57.6467 126.938 54.4766 119.625 54.4766H109.63L109.697 70.4606Z" fill="#6CB9FF"/>
<path d="M144 77V29H151V77H144Z" fill="white"/>
<path d="M190 59.4256C190 69.156 184.283 77 173.823 77C163.936 77 158 69.6028 158 59.5579C158 49.513 163.885 42 174.227 42C183.761 42 190 48.9504 190 59.4256ZM164.777 59.4256C164.777 66.591 168.325 71.6383 174.126 71.6383C179.927 71.6383 183.341 66.8061 183.341 59.4586C183.341 52.1111 179.978 47.2293 173.992 47.2293C168.005 47.2293 164.726 51.9787 164.726 59.4917L164.777 59.4256Z" fill="white"/>
<path d="M199.525 43C203.98 50.1192 205.845 53.1237 207.017 54.9525C208.37 52.8298 211.026 48.666 214.723 43H221.918L210.729 58.8387L222 76H214.607C210.762 69.7135 208.122 65.4354 206.851 63.3454C205.795 65.1579 203.172 69.5339 199.129 76H192L203.023 59.5898L192.297 43H199.525Z" fill="white"/>
<path d="M228 31H246.1C256.099 31 260.532 36.1252 260.532 42.2949C260.649 44.3848 260.088 46.4574 258.93 48.2163C257.772 49.9753 256.075 51.3305 254.083 52.0882C256.4 52.7948 258.423 54.2156 259.849 56.139C261.276 58.0625 262.03 60.3857 261.999 62.7628C261.999 71.1033 255.483 76 246.566 76H228V31ZM244.933 49.5256C251.233 49.5256 253.699 47.0609 253.699 42.8988C253.699 39.0468 250.849 36.37 245.75 36.37H234.7V49.4276L244.933 49.5256ZM234.7 70.5811H245.6C251.283 70.5811 254.999 68.0022 254.999 62.6975C254.999 58.0457 251.949 54.9445 244.633 54.9445H234.633L234.7 70.5811Z" fill="#6CB9FF"/>
<path d="M297 66.5435C297 69.8317 297 74.0571 297 76.2273H290.602C290.467 75.3395 290.4 73.3666 290.366 71.4594C288.682 75.0764 285.399 77 280.264 77C274.304 77 269 73.9584 269 64.8172V43H275.533V63.4197C275.533 67.6451 276.88 71.4758 282.268 71.4758C288.144 71.4758 290.434 68.3192 290.434 60.3453V43H297V66.5435Z" fill="white"/>
<path d="M306 28H313V35.3872H306V28ZM306 42.6754H313V76H306V42.6754Z" fill="white"/>
<path d="M322 76V28H329V76H322Z" fill="white"/>
<path d="M367 28V66.8123C367 69.9432 367 73.0243 367 76.2214H360.75C360.568 74.7258 360.462 73.2219 360.432 71.7157C358.761 75.0287 355.419 77 350.004 77C341.364 77 336 70.0592 336 59.8219C336 49.5845 341.765 41.9645 351.141 41.9645C356.906 41.9645 359.496 44.2174 360.432 46.023V28H367ZM342.785 59.623C342.785 67.4087 346.395 71.6163 351.558 71.6163C359.179 71.6163 360.716 65.9344 360.716 59.0764C360.716 51.9699 359.296 47.3482 351.976 47.3482C346.261 47.3482 342.785 51.8539 342.785 59.623Z" fill="white"/>
<path d="M376 28H383V35.3872H376V28ZM376 42.6754H383V76H376V42.6754Z" fill="white"/>
<path d="M393 51.128C393 48.2714 393 45.3163 393 42.7716H399.264C399.413 43.7238 399.512 46.9909 399.512 47.9923C400.802 45.2835 403.529 42 409.859 42C416.19 42 421 45.9237 421 54.6577V76H414.488V55.4457C414.488 50.6847 412.669 47.4341 407.76 47.4341C401.926 47.4341 399.496 51.7026 399.496 58.2038V75.9507H393V51.128Z" fill="white"/>
<path d="M457.837 73.0228C457.837 83.7557 453.586 90 442.511 90C432.137 90 429.205 84.087 428.668 79.6977H435.182C436.078 83.0932 438.733 84.9648 442.821 84.9648C450.003 84.9648 451.713 80.3603 451.713 72.8903V70.3892C449.954 73.9834 447.006 76.0373 441.616 76.0373C433.472 76.0373 428 69.2298 428 59.5735C428 48.7412 434.238 42 442.251 42C448.391 42 451.013 44.9317 451.713 46.9689C451.713 45.5611 451.925 43.3913 451.99 42.7123H458C458 44.8489 457.886 49.1553 457.886 52.3685L457.837 73.0228ZM434.515 59.2919C434.515 66.0994 437.984 70.6212 443.098 70.6212C449.889 70.6212 451.844 65.9669 451.844 58.8944C451.844 51.822 450.085 47.383 443.293 47.383C437.625 47.383 434.515 52.1532 434.515 59.2919Z" fill="white"/>
<defs>
<radialGradient id="paint0_diamond_302_74" cx="0" cy="0" r="1" gradientUnits="userSpaceOnUse" gradientTransform="translate(6.01028 27.8987) rotate(-10.8347) scale(85.7048 102.74)">
<stop stop-color="#84FFF7"/>
<stop offset="0.494792" stop-color="#5EE2FF"/>
<stop offset="1" stop-color="#3A67DB"/>
</radialGradient>
<radialGradient id="paint1_diamond_302_74" cx="0" cy="0" r="1" gradientUnits="userSpaceOnUse" gradientTransform="translate(1.49002 71.242) rotate(-29.928) scale(48.6667 136.629)">
<stop stop-color="#84FFF7"/>
<stop offset="0.494792" stop-color="#5EE2FF"/>
<stop offset="1" stop-color="#3A67DB"/>
</radialGradient>
<radialGradient id="paint2_diamond_302_74" cx="0" cy="0" r="1" gradientUnits="userSpaceOnUse" gradientTransform="translate(48.8862 71.1919) rotate(-29.9034) scale(48.6422 136.492)">
<stop stop-color="#84FFF7"/>
<stop offset="0.494792" stop-color="#5EE2FF"/>
<stop offset="1" stop-color="#3A67DB"/>
</radialGradient>
</defs>
</svg>
